ffmpeg started on 2016-11-28 at 02:32:02
Report written to "Output/NVENCh264/results/ffmpeg/crowd_run_2160p50llhp7000k.log"
Command line:
Tools/ffmpeg/ffmpeg -benchmark -y -i Input/y4m/crowd_run_2160p50.y4m -c:v h264_nvenc -preset llhp -b:v 7000k -an Output/NVENCh264/encoded/crowd_run_2160p50llhp7000k.mkv
ffmpeg version N-82227-gdb23fde Copyright (c) 2000-2016 the FFmpeg developers
  built with gcc 5.4.0 (Ubuntu 5.4.0-6ubuntu1~16.04.2) 20160609
  configuration: --prefix=/home/jaroslav/ffmpeg_build --pkg-config-flags=--static --extra-cflags=-I/home/jaroslav/ffmpeg_build/include --extra-ldflags=-L/home/jaroslav/ffmpeg_build/lib --bindir=/home/jaroslav/bin --enable-gpl --enable-libass --enable-libfdk-aac --enable-libfreetype --enable-libmp3lame --enable-libopus --enable-libtheora --enable-libvorbis --enable-libvpx --enable-libx264 --enable-libx265 --enable-nvenc --enable-libmfx --enable-libxvid --enable-libgsm --enable-libopencore-amrnb --enable-version3 --enable-nonfree
  libavutil      55. 35.100 / 55. 35.100
  libavcodec     57. 66.101 / 57. 66.101
  libavformat    57. 57.100 / 57. 57.100
  libavdevice    57.  2.100 / 57.  2.100
  libavfilter     6. 66.100 /  6. 66.100
  libswscale      4.  3.100 /  4.  3.100
  libswresample   2.  4.100 /  2.  4.100
  libpostproc    54.  2.100 / 54.  2.100
Input #0, yuv4mpegpipe, from 'Input/y4m/crowd_run_2160p50.y4m':
  Duration: 00:00:10.00, start: 0.000000, bitrate: 4976642 kb/s
    Stream #0:0: Video: rawvideo (I420 / 0x30323449), yuv420p(progressive), 3840x2160, SAR 1:1 DAR 16:9, 50 fps, 50 tbr, 50 tbn, 50 tbc
[h264_nvenc @ 0x26d11c0] The variable bitrate rate-control requires the 'qmin' and/or 'qmax' option set.
Output #0, matroska, to 'Output/NVENCh264/encoded/crowd_run_2160p50llhp7000k.mkv':
  Metadata:
    encoder         : Lavf57.57.100
    Stream #0:0: Video: h264 (h264_nvenc) (Main) (H264 / 0x34363248), yuv420p, 3840x2160 [SAR 1:1 DAR 16:9], q=-1--1, 7000 kb/s, 50 fps, 1k tbn, 50 tbc
    Metadata:
      encoder         : Lavc57.66.101 h264_nvenc
    Side data:
      cpb: bitrate max/min/avg: 0/0/7000000 buffer size: 14000000 vbv_delay: -1
Stream mapping:
  Stream #0:0 -> #0:0 (rawvideo (native) -> h264 (h264_nvenc))
Press [q] to stop, [?] for help
frame=    9 fps=0.0 q=0.0 size=       0kB time=00:00:00.00 bitrate=N/A speed=   0x    frame=   21 fps= 20 q=0.0 size=       0kB time=00:00:00.00 bitrate=N/A speed=   0x    frame=   33 fps= 21 q=47.0 size=       1kB time=00:00:00.04 bitrate= 145.8kbits/s speed=0.0267x    frame=   51 fps= 25 q=46.0 size=       1kB time=00:00:00.40 bitrate=  14.9kbits/s speed=0.195x    frame=   69 fps= 27 q=46.0 size=       1kB time=00:00:00.76 bitrate=   7.9kbits/s speed=0.295x    frame=   87 fps= 28 q=45.0 size=       1kB time=00:00:01.12 bitrate=   5.3kbits/s speed=0.362x    frame=  105 fps= 29 q=46.0 size=       1kB time=00:00:01.48 bitrate=   4.0kbits/s speed=0.409x    frame=  117 fps= 19 q=46.0 size=       1kB time=00:00:01.72 bitrate=   3.5kbits/s speed=0.281x    frame=  118 fps= 12 q=46.0 size=       1kB time=00:00:01.74 bitrate=   3.4kbits/s speed=0.177x    frame=  119 fps= 10 q=47.0 size=       1kB time=00:00:01.76 bitrate=   3.4kbits/s speed=0.154x    frame=  137 fps= 11 q=46.0 size=       1kB time=00:00:02.12 bitrate=   2.8kbits/s speed=0.177x    frame=  154 fps= 12 q=46.0 size=       1kB time=00:00:02.46 bitrate=   2.4kbits/s speed=0.197x    frame=  171 fps= 13 q=46.0 size=       1kB time=00:00:02.80 bitrate=   2.1kbits/s speed=0.215x    frame=  188 fps= 14 q=47.0 size=       1kB time=00:00:03.14 bitrate=   1.9kbits/s speed=0.232x    frame=  205 fps= 15 q=46.0 size=       1kB time=00:00:03.48 bitrate=   1.7kbits/s speed=0.248x    frame=  222 fps= 15 q=46.0 size=       1kB time=00:00:03.82 bitrate=   1.6kbits/s speed=0.263x    frame=  240 fps= 16 q=45.0 size=       1kB time=00:00:04.18 bitrate=   1.4kbits/s speed=0.278x    frame=  258 fps= 17 q=46.0 size=       1kB time=00:00:04.54 bitrate=   1.3kbits/s speed=0.291x    frame=  276 fps= 17 q=45.0 size=       1kB time=00:00:04.90 bitrate=   1.2kbits/s speed=0.304x    frame=  290 fps= 17 q=48.0 size=    4268kB time=00:00:05.18 bitrate=6748.5kbits/s speed=0.311x    frame=  308 fps= 18 q=45.0 size=    4268kB time=00:00:05.54 bitrate=6310.1kbits/s speed=0.323x    frame=  326 fps= 18 q=46.0 size=    4268kB time=00:00:05.90 bitrate=5925.1kbits/s speed=0.334x    frame=  344 fps= 19 q=46.0 size=    4268kB time=00:00:06.26 bitrate=5584.4kbits/s speed=0.344x    frame=  362 fps= 19 q=46.0 size=    4268kB time=00:00:06.62 bitrate=5280.8kbits/s speed=0.354x    frame=  380 fps= 20 q=46.0 size=    4268kB time=00:00:06.98 bitrate=5008.5kbits/s speed=0.363x    frame=  398 fps= 20 q=45.0 size=    4268kB time=00:00:07.34 bitrate=4762.9kbits/s speed=0.371x    frame=  416 fps= 21 q=47.0 size=    4268kB time=00:00:07.70 bitrate=4540.2kbits/s speed=0.38x    frame=  434 fps= 21 q=47.0 size=    4268kB time=00:00:08.06 bitrate=4337.5kbits/s speed=0.388x    frame=  452 fps= 21 q=47.0 size=    4268kB time=00:00:08.42 bitrate=4152.0kbits/s speed=0.395x    frame=  463 fps= 21 q=46.0 size=    4268kB time=00:00:08.64 bitrate=4046.3kbits/s speed=0.396x    frame=  481 fps= 22 q=47.0 size=    4268kB time=00:00:09.00 bitrate=3884.5kbits/s speed=0.403x    frame=  499 fps= 22 q=47.0 size=    4268kB time=00:00:09.36 bitrate=3735.1kbits/s speed=0.409x    frame=  500 fps= 22 q=47.0 Lsize=    8557kB time=00:00:09.98 bitrate=7023.6kbits/s speed=0.435x    
video:8553kB audio:0kB subtitle:0kB other streams:0kB global headers:0kB muxing overhead: 0.052991%
bench: utime=1.172s
bench: maxrss=1408432kB
